<svg width="30" height="30" viewBox="0 0 30 30" fill="none" xmlns="http://www.w3.org/2000/svg">
<path d="M22.6784 25.4156C22.484 25.4171 22.294 25.3581 22.1346 25.2468L13.1252 18.9281C13.0138 18.8495 12.9208 18.7476 12.8528 18.6294C12.7848 18.5112 12.7434 18.3796 12.7315 18.2437C12.7189 18.1064 12.7367 17.968 12.7837 17.8383C12.8307 17.7087 12.9057 17.591 13.0034 17.4937L15.4596 15L11.2502 17.6343L13.1252 21.9375L13.9502 21.1125C14.1255 20.9359 14.3638 20.8363 14.6125 20.8354C14.8613 20.8345 15.1003 20.9325 15.2768 21.1078C15.4533 21.2831 15.553 21.5213 15.5539 21.7701C15.5548 22.0189 15.4568 22.2578 15.2815 22.4343L13.4065 24.2343C13.2984 24.3435 13.1651 24.4245 13.0184 24.4701C12.8717 24.5157 12.716 24.5245 12.5651 24.4958C12.4141 24.4671 12.2726 24.4017 12.1528 24.3054C12.0331 24.2092 11.9388 24.085 11.8784 23.9437L9.16898 17.625C9.08225 17.4183 9.07238 17.1875 9.14117 16.9743C9.20997 16.761 9.35287 16.5794 9.54398 16.4625L21.2815 9.23433C21.4772 9.11384 21.7104 9.06947 21.9368 9.10964C22.1631 9.14982 22.3668 9.27175 22.5091 9.45226C22.6514 9.63276 22.7225 9.85927 22.7087 10.0887C22.695 10.3182 22.5974 10.5346 22.4346 10.6968L15.1034 18.0281L22.0784 22.9218L25.8284 6.98433L5.41898 14.5781L7.67836 15.5156C7.79966 15.5563 7.91133 15.6214 8.00652 15.7069C8.1017 15.7924 8.17837 15.8965 8.23181 16.0128C8.28525 16.129 8.31433 16.255 8.31726 16.3829C8.32018 16.5108 8.29689 16.638 8.24882 16.7566C8.20075 16.8751 8.12891 16.9826 8.03774 17.0724C7.94656 17.1622 7.83798 17.2323 7.71867 17.2785C7.59936 17.3248 7.47185 17.3461 7.34399 17.3411C7.21614 17.3362 7.09064 17.3052 6.97523 17.25L2.46586 15.4218C2.28798 15.3544 2.13484 15.2344 2.02678 15.0778C1.91872 14.9212 1.86084 14.7355 1.86084 14.5453C1.86084 14.355 1.91872 14.1693 2.02678 14.0127C2.13484 13.8562 2.28798 13.7362 2.46586 13.6687L26.8596 4.68746C27.0175 4.6305 27.1878 4.61698 27.3527 4.64831C27.5176 4.67965 27.6711 4.75468 27.7971 4.86558C27.9275 4.97973 28.0236 5.12777 28.0749 5.29326C28.1262 5.45875 28.1307 5.63522 28.0877 5.80308L23.5877 24.6937C23.553 24.8439 23.4818 24.9832 23.3805 25.0993C23.2791 25.2154 23.1506 25.3047 23.0065 25.3593C22.901 25.3962 22.7901 25.4152 22.6784 25.4156V25.4156Z" fill="white"/>
</svg>
